<?xml version="1.0" encoding="UTF-8"?>
<!DOCTYPE svg PUBLIC "-//W3C//DTD SVG 1.1//EN" "http://www.w3.org/Graphics/SVG/1.1/DTD/svg11.dtd">
<!-- Creator: CorelDRAW -->
<svg xmlns="http://www.w3.org/2000/svg" xml:space="preserve" width="153.711mm" height="218.952mm" version="1.1" style="shape-rendering:geometricPrecision; text-rendering:geometricPrecision; image-rendering:optimizeQuality; fill-rule:evenodd; clip-rule:evenodd"
viewBox="0 0 15371 21895"
 xmlns:xlink="http://www.w3.org/1999/xlink">
 <defs>
  <style type="text/css">
   <![CDATA[
    .fil77 {fill:#C5C588;fill-rule:nonzero}
    .fil45 {fill:#A1A164;fill-rule:nonzero}
    .fil56 {fill:#FFE600;fill-rule:nonzero}
    .fil87 {fill:#F5CF22;fill-rule:nonzero}
    .fil14 {fill:#BB8B72;fill-rule:nonzero}
    .fil29 {fill:#E6B380;fill-rule:nonzero}
    .fil81 {fill:#FFCC80;fill-rule:nonzero}
    .fil25 {fill:#FFCC03;fill-rule:nonzero}
    .fil58 {fill:#FFCC00;fill-rule:nonzero}
    .fil31 {fill:#FDBE58;fill-rule:nonzero}
    .fil61 {fill:#E9A500;fill-rule:nonzero}
    .fil92 {fill:#C276C2;fill-rule:nonzero}
    .fil12 {fill:#CC804D;fill-rule:nonzero}
    .fil17 {fill:#FAAE45;fill-rule:nonzero}
    .fil47 {fill:#FFB300;fill-rule:nonzero}
    .fil84 {fill:#FFB003;fill-rule:nonzero}
    .fil62 {fill:#D48000;fill-rule:nonzero}
    .fil22 {fill:#C06734;fill-rule:nonzero}
    .fil82 {fill:#FFA64D;fill-rule:nonzero}
    .fil50 {fill:#852A1D;fill-rule:nonzero}
    .fil59 {fill:#A43EA4;fill-rule:nonzero}
    .fil48 {fill:#B34D1A;fill-rule:nonzero}
    .fil88 {fill:#E68034;fill-rule:nonzero}
    .fil21 {fill:#DE7800;fill-rule:nonzero}
    .fil24 {fill:#FF8800;fill-rule:nonzero}
    .fil95 {fill:#9F235B;fill-rule:nonzero}
    .fil70 {fill:#850685;fill-rule:nonzero}
    .fil28 {fill:#B30000;fill-rule:nonzero}
    .fil79 {fill:#EEDF74;fill-rule:nonzero}
    .fil60 {fill:#F8D571;fill-rule:nonzero}
    .fil30 {fill:#F8C867;fill-rule:nonzero}
    .fil76 {fill:#C3A953;fill-rule:nonzero}
    .fil52 {fill:#744850;fill-rule:nonzero}
    .fil46 {fill:#835D67;fill-rule:nonzero}
    .fil6 {fill:#E69C34;fill-rule:nonzero}
    .fil83 {fill:#E9A608;fill-rule:nonzero}
    .fil64 {fill:#6C5A4B;fill-rule:nonzero}
    .fil91 {fill:#A48B9A;fill-rule:nonzero}
    .fil27 {fill:#490B37;fill-rule:nonzero}
    .fil16 {fill:#D58B22;fill-rule:nonzero}
    .fil63 {fill:#5D0841;fill-rule:nonzero}
    .fil89 {fill:#E1CD36;fill-rule:nonzero}
    .fil13 {fill:#9A7D5A;fill-rule:nonzero}
    .fil9 {fill:#A77C4E;fill-rule:nonzero}
    .fil10 {fill:#8D5F2C;fill-rule:nonzero}
    .fil53 {fill:#7E4E1D;fill-rule:nonzero}
    .fil7 {fill:#C57B12;fill-rule:nonzero}
    .fil86 {fill:#E6666C;fill-rule:nonzero}
    .fil39 {fill:#8A974D;fill-rule:nonzero}
    .fil57 {fill:#C7BD55;fill-rule:nonzero}
    .fil65 {fill:#5F4850;fill-rule:nonzero}
    .fil15 {fill:#BE9A20;fill-rule:nonzero}
    .fil19 {fill:#BE8800;fill-rule:nonzero}
    .fil8 {fill:#BD9215;fill-rule:nonzero}
    .fil80 {fill:#658192;fill-rule:nonzero}
    .fil43 {fill:#606267;fill-rule:nonzero}
    .fil90 {fill:#B6B0A4;fill-rule:nonzero}
    .fil54 {fill:#A78600;fill-rule:nonzero}
    .fil26 {fill:#977600;fill-rule:nonzero}
    .fil51 {fill:#9D7400;fill-rule:nonzero}
    .fil66 {fill:#244B4D;fill-rule:nonzero}
    .fil55 {fill:#A7E17B;fill-rule:nonzero}
    .fil1 {fill:#7BB146;fill-rule:nonzero}
    .fil18 {fill:#927B22;fill-rule:nonzero}
    .fil69 {fill:#135213;fill-rule:nonzero}
    .fil11 {fill:#4D5A67;fill-rule:nonzero}
    .fil68 {fill:#5B2062;fill-rule:nonzero}
    .fil85 {fill:#B38080;fill-rule:nonzero}
    .fil74 {fill:#4B9F4B;fill-rule:nonzero}
    .fil78 {fill:#83A762;fill-rule:nonzero}
    .fil49 {fill:#65652F;fill-rule:nonzero}
    .fil67 {fill:#7EB81A;fill-rule:nonzero}
    .fil33 {fill:#6F924E;fill-rule:nonzero}
    .fil40 {fill:#5B7E3A;fill-rule:nonzero}
    .fil23 {fill:#A46CA6;fill-rule:nonzero}
    .fil72 {fill:#2F501D;fill-rule:nonzero}
    .fil20 {fill:#183C00;fill-rule:nonzero}
    .fil93 {fill:#7188DC;fill-rule:nonzero}
    .fil71 {fill:#2F6A77;fill-rule:nonzero}
    .fil94 {fill:#74C0C3;fill-rule:nonzero}
    .fil42 {fill:#348083;fill-rule:nonzero}
    .fil34 {fill:#539283;fill-rule:nonzero}
    .fil37 {fill:#135243;fill-rule:nonzero}
    .fil35 {fill:#2C6C17;fill-rule:nonzero}
    .fil36 {fill:#5BA02A;fill-rule:nonzero}
    .fil38 {fill:#44CB9F;fill-rule:nonzero}
    .fil41 {fill:#137686;fill-rule:nonzero}
    .fil4 {fill:#008B97;fill-rule:nonzero}
    .fil75 {fill:#2CB68D;fill-rule:nonzero}
    .fil44 {fill:#169F77;fill-rule:nonzero}
    .fil5 {fill:#048662;fill-rule:nonzero}
    .fil32 {fill:#2A8622;fill-rule:nonzero}
    .fil3 {fill:#007C7C;fill-rule:nonzero}
    .fil73 {fill:#006495;fill-rule:nonzero}
    .fil2 {fill:#008A00;fill-rule:nonzero}
    .fil0 {fill:black;fill-rule:nonzero}
   ]]>
  </style>
 </defs>
 <g id="Layer_x0020_1">
  <metadata id="CorelCorpID_0Corel-Layer"/>
  <g id="vc024913.ai">
   <g>
    <g>
     <path class="fil0" d="M8583 6549l1270 914 349 -252 203 650 360 258 239 -624 391 155 89 692 835 -111c0,0 -299,414 -284,802 15,387 373,938 373,938l783 18c0,0 -283,510 -256,822 27,312 315,436 315,436l388 -15c0,0 -271,435 4,926 276,491 571,955 590,1220 18,265 -192,616 -192,616l351 211c0,0 274,784 265,1029 -8,245 -168,759 -168,759 0,0 226,-256 355,88 130,345 176,629 96,1033 -80,403 -224,719 -224,719l656 136c0,0 -314,612 -682,599 -368,-13 -565,-30 -565,-30l-362 620 510 -10c0,0 -259,652 -659,741 -400,90 -925,5 -925,5 0,0 -157,684 -335,640 -178,-44 -469,710 -904,732 -435,23 -1039,-244 -1039,-244 0,0 -96,308 -428,362 -333,55 -436,23 -436,23 0,0 -250,406 -720,361 -471,-45 -879,290 -1483,23 -605,-267 -1125,-767 -1125,-767l-1500 -827 968 109c0,0 -515,-915 -728,-1026 -213,-112 -792,-822 -1024,-1198 -232,-376 -211,-989 -211,-989l309 95c0,0 -611,-606 -654,-1014 -42,-408 66,-791 66,-791 0,0 -535,-595 -495,-943 41,-348 113,-505 113,-505 0,0 46,-764 -65,-843 -110,-79 -685,136 -685,136 0,0 -73,-597 181,-834 254,-236 720,-69 720,-69l-10 -510 -286 -709 274 -556 461 583 118 -921 247 -577 -536 453 -352 82 -87 -985 378 -817 -751 926 -116 -712 284 -802 -436 315 -446 853 -369 -1061 533 -916 -578 338 -567 556 26 -735 204 -692c0,0 -273,-28 -400,90 -127,118 -663,864 -663,864 0,0 -267,-736 -16,-1143 250,-407 804,-595 804,-595l1069 -320 681 -14 -1190 -269 -676 -109c0,0 -119,166 74,305 193,139 304,218 304,218 0,0 -585,-2 -798,-113 -214,-111 -529,-548 -330,-824 199,-276 982,-258 982,-258 0,0 165,120 514,-132 349,-252 776,-322 776,-322 0,0 -358,-258 -203,-649 155,-391 452,-513 452,-513l503 -58c0,0 -468,418 -390,600 79,183 455,-50 791,66 336,116 636,165 636,165 0,0 163,-1392 695,-2015 532,-623 1183,-1412 1183,-1412l41 700 870 -45 -325 395 -245 1039 1041 -1389 -49 593c0,0 548,-820 995,-918 447,-97 608,437 608,437l-81 403c0,0 -216,-281 -418,-175 -202,106 -842,1113 -842,1113l728 -315 -791 1275 1262 -1230 748 -49 -739 852 -504 643 1482 -1071c0,0 364,136 320,314 -44,178 -255,529 -255,529l-182 -214 -582 461 -231 379c0,0 420,-118 630,-176 209,-59 429,393 429,393l-217 11 133 222c0,0 -1097,593 -1196,731 -100,138 -223,427 -223,427 0,0 853,-895 1517,-711 664,184 1129,644 1129,644 0,0 -910,100 -1215,174 -304,74 -919,638 -919,638l-338 469z"/>
     <path class="fil1" d="M5603 1137c-887,243 -1033,1437 -1202,2195 56,40 111,80 166,120 278,-387 225,-1012 751,-1220 136,-363 402,-675 285,-1095z"/>
     <path class="fil2" d="M5894 7549c-240,-131 -742,-366 -657,156 -25,443 -960,986 -503,1398 492,-275 794,-812 1222,-1174 12,-75 -54,-332 -62,-380z"/>
     <path class="fil3" d="M6466 870c0,0 -240,-46 -376,86 -137,132 -479,578 -479,578l277 52c0,0 -11,-364 181,-456 192,-92 397,-260 397,-260z"/>
     <path class="fil4" d="M8169 629c0,0 247,-199 384,-39 135,161 125,321 125,321 0,0 -81,-121 -187,-177 -107,-55 -214,35 -214,35l-175 273 67 -413z"/>
     <path class="fil5" d="M4076 6757c0,0 -1455,-250 -1869,500 -414,750 -229,1134 -229,1134 0,0 343,-885 960,-985 618,-101 1919,-338 1919,-338 0,0 502,235 612,314 111,80 -146,146 513,453 659,306 991,-796 1313,-1068 321,-271 -14,-1728 -14,-1728l167 -466 534 -1209 -1276 843 -172 -752 296 -877 236 -794 132 -534 -631 762 -604 781 -342 -749c0,0 -587,583 -865,970 -278,386 -495,1446 -495,1446l-1217 -289c0,0 -1189,779 -979,721 209,-59 1327,368 1327,368l-823 329 -1160 214c0,0 -744,219 -911,392 -166,174 -120,459 -120,459 0,0 128,-411 563,-433 435,-23 728,-22 728,-22 0,0 -306,367 -405,505 -100,138 -73,451 -73,451l225 36c0,0 366,-450 671,-524 304,-74 1337,-170 1514,-125 178,44 475,215 475,215z"/>
     <path class="fil6" d="M5402 8466c0,0 -903,732 -1048,1341 -144,608 -320,1027 -320,1027l-314 612 -380 62 319 314c0,0 -56,253 -120,458 -64,205 -156,684 -156,684 0,0 112,834 158,1119 47,285 317,1192 317,1192l255 518c0,0 -279,680 -43,934 237,254 430,393 430,393 0,0 -26,735 68,1012 94,277 239,717 507,868 269,151 571,662 571,662 0,0 629,1165 1199,1365 568,199 1841,528 2169,303 330,-224 967,-645 1115,-791 146,-146 1591,-406 1745,-504 155,-98 971,-476 1098,-594 127,-118 -19,-2653 90,-3329 109,-676 -2818,-5463 -3591,-6312 -772,-849 -1292,-1349 -1292,-1349 0,0 -520,-793 -852,-738 -333,54 -1310,189 -1310,189l-615 564z"/>
     <path class="fil7" d="M7387 8678c273,29 367,305 615,484 249,179 393,911 393,911l572 370c0,0 573,77 742,366 169,289 285,1294 285,1294 0,0 176,630 242,887 66,257 101,617 101,617 0,0 609,145 754,291 146,147 265,1322 331,1579 67,258 41,701 41,701 0,0 828,-453 1171,3 343,456 102,1666 102,1666l-231 1427c0,0 192,724 692,204 500,-521 1029,-1607 1189,-2120 160,-514 -202,-942 -202,-942 0,0 11,-1123 -47,-1626 -57,-502 -487,-895 -487,-895 0,0 -158,-1120 -265,-1322 -105,-202 -168,-582 -168,-582l81 -403 -515 133 -156 -657 -93 -570c0,0 -533,-132 -632,-287 -98,-154 -117,-419 -385,-863 -267,-444 -1084,-822 -1084,-822l-406 -543c0,0 -118,-127 -505,-406 -387,-278 -553,-104 -553,-104 0,0 540,472 504,698 -37,225 -732,144 -732,144l-686 -620 -728 22 60 965z"/>
     <path class="fil8" d="M8689 8441c-343,-163 -596,-512 -1035,-367 77,475 523,962 1037,830 -35,-68 -14,-388 -2,-463z"/>
     <path class="fil9" d="M11332 9252c-396,34 -365,525 -150,748 124,129 310,167 511,-27 108,-383 -449,-365 -361,-721z"/>
     <path class="fil10" d="M11194 9153c-433,-15 -535,498 -404,845 92,242 297,404 582,247 -109,-372 -69,-720 -178,-1092z"/>
     <path class="fil11" d="M9358 7539c0,0 -151,-24 -226,-36 78,474 255,811 285,1294 534,-161 90,-941 -59,-1258z"/>
     <path class="fil12" d="M9788 8603c-169,-100 -362,-149 -562,-140 -184,8 -373,64 -553,176 77,474 1105,501 1115,-36z"/>
     <path class="fil13" d="M8679 8979c-193,-139 -411,-128 -608,-145 -41,348 59,1258 554,860 52,-130 70,-620 54,-715z"/>
     <path class="fil14" d="M10810 19940c0,0 -1629,169 -2915,-840 -1286,-1009 -1956,-1825 -2404,-2483 -449,-658 -1488,-2243 -1488,-2243l-45 -871c0,0 -93,-569 -91,-1155 2,-585 393,-1478 393,-1478 0,0 -583,1509 -759,2221 -176,711 91,1155 58,1550 -33,395 109,665 109,665l314 728 163 705 277 199c0,0 -168,466 115,1005 283,538 575,832 575,832l448 658 551 983c0,0 535,887 1191,1024 656,136 1400,-83 1400,-83l998 -455c0,0 482,262 665,-109 183,-371 775,-29 775,-29l855 -140 -173 -459 -362 -428 -650 203z"/>
     <path class="fil8" d="M5470 9130c-181,-72 -384,-52 -560,29 -204,94 -329,383 -387,588 335,116 1017,-190 947,-617z"/>
     <path class="fil15" d="M11383 20310c-241,-131 -569,-200 -803,9 -13,231 281,364 526,364 227,0 413,-114 277,-373z"/>
     <path class="fil13" d="M7265 19276c-113,-59 -428,-203 -656,-214 -201,-9 -335,85 -210,429 225,36 877,296 866,-215z"/>
     <path class="fil9" d="M10759 18730c-459,173 -936,835 -1588,576 -102,-32 -197,-16 -300,-48 -75,1036 1477,685 1791,73 52,-130 133,-534 97,-601z"/>
     <path class="fil16" d="M5469 10148c-426,-223 -1019,1069 -299,1000 348,-252 259,-652 299,-1000z"/>
     <path class="fil16" d="M9162 10667c-209,-234 -749,341 -168,466 -29,273 17,850 464,753 203,-399 15,-953 -296,-1219z"/>
     <path class="fil15" d="M6074 14522c-274,-44 -435,379 -385,675 33,190 154,328 390,251 -129,-345 22,-613 -5,-926z"/>
     <path class="fil17" d="M9576 16412c-518,-37 -771,955 -376,1280 67,-35 352,-82 455,-50 33,-395 58,-838 -79,-1230z"/>
     <path class="fil17" d="M12247 18962c-277,-199 -263,481 -654,326 -40,55 -99,138 -139,193 292,294 965,-60 793,-519z"/>
     <path class="fil7" d="M11010 19079c-771,-94 -337,1517 232,668 11,-109 -7,-205 -39,-294 -48,-135 -129,-253 -193,-374z"/>
     <path class="fil6" d="M5231 14879c-249,-178 -806,-453 -926,5 312,-26 1041,1000 956,185 -7,-47 -23,-142 -30,-190z"/>
     <path class="fil8" d="M4809 15582c0,0 -301,-49 -451,-73 -178,1297 845,2787 2111,2775 119,-165 143,-315 168,-466 -1091,-114 -1697,-1136 -1828,-2236z"/>
     <path class="fil8" d="M4593 11571c-941,-90 -1429,1403 -1400,2179 206,63 356,88 467,167 -45,-870 772,-1540 933,-2346z"/>
     <path class="fil18" d="M10609 19753c-1195,147 -2820,1241 -3788,-210 -111,-79 -316,-143 -427,-223 -79,111 -158,221 -238,332 889,1561 3696,1736 4453,101z"/>
     <path class="fil7" d="M10758 16633c-463,-266 -1233,1031 -924,1188 87,44 259,-3 549,-200 158,-221 390,-892 375,-988z"/>
     <path class="fil6" d="M6589 17973c-274,1 -334,317 -281,617 37,206 129,405 242,486 266,-312 -49,-748 39,-1103z"/>
     <path class="fil12" d="M6349 17024c-426,-515 -962,231 -358,498 349,335 485,102 473,-158 -5,-128 -47,-262 -115,-340z"/>
     <path class="fil19" d="M4660 15643c-577,45 -652,1081 -150,1316 67,-35 114,-43 182,-78 -287,-417 38,-811 -32,-1238z"/>
     <path class="fil20" d="M5426 7645c-268,-151 -495,398 -795,56 -644,-211 -939,666 -1368,1028 -51,131 -56,253 -108,384 570,-94 754,-757 1410,-621 491,18 994,-333 861,-847z"/>
     <path class="fil6" d="M10077 12394c-648,-89 -320,1027 -866,1262 91,108 174,167 236,254 720,-68 866,-970 630,-1516z"/>
     <path class="fil21" d="M11121 14904c-162,-45 -220,66 -254,213 -47,202 -50,471 -215,498 223,622 741,-389 469,-711z"/>
     <path class="fil22" d="M10505 8595c-55,-40 -348,-41 -463,2 -40,348 37,823 246,1057 115,-43 230,-86 317,-149 76,-281 -26,-605 -100,-910z"/>
     <path class="fil6" d="M8444 16122c-332,-239 -1123,-305 -1282,209 55,40 83,60 138,99 356,-204 925,-5 1122,305 75,12 130,52 205,64 104,-261 -57,-503 -183,-677z"/>
     <path class="fil6" d="M11970 12791c-213,-111 -836,-643 -901,-145 601,97 1192,732 858,1371 55,40 110,80 165,119 409,-334 170,-1051 -122,-1345z"/>
     <path class="fil12" d="M8248 16861c-261,-104 -502,-235 -783,-312 -149,252 -13,470 192,604 345,225 886,210 591,-292z"/>
     <path class="fil23" d="M8646 19452c-379,-231 -1075,-19 -1275,-498 -583,460 468,630 769,678 122,5 467,-124 506,-180z"/>
     <path class="fil24" d="M8711 14177c-647,-382 -1508,465 -1174,1167 75,12 130,52 205,64 -2,-463 114,-1092 782,-1030 88,-63 187,-201 187,-201z"/>
     <path class="fil25" d="M7567 10756c-267,-444 -1422,-353 -1266,305 324,-102 690,-552 1005,-116 122,5 269,-141 261,-189z"/>
     <path class="fil1" d="M9647 9905c-56,-40 -352,-211 -454,-243 -53,423 310,559 499,820 242,-161 33,-395 -45,-577z"/>
     <path class="fil26" d="M12716 11987c-132,-41 -263,120 -330,305 -90,245 -68,533 209,446 1,-292 203,-399 121,-751z"/>
     <path class="fil27" d="M13187 15469c-589,121 362,721 -74,1036 -52,130 -76,280 -128,411 103,32 178,44 253,56 290,-462 359,-1083 -51,-1503z"/>
     <path class="fil16" d="M13976 15072c-224,-8 -304,259 -276,509 18,161 81,314 178,385 281,-217 124,-581 98,-894z"/>
     <path class="fil28" d="M13793 15443c-386,-40 -489,457 -352,812 57,147 156,270 293,319 293,-292 101,-723 59,-1131z"/>
     <path class="fil7" d="M13903 16863c-593,-62 -712,490 -815,1097 -86,509 -162,1056 -498,1311 1296,179 1357,-1538 1313,-2408z"/>
     <path class="fil12" d="M5157 17487c-265,19 -865,-371 -614,271 43,115 212,404 267,444 215,-181 373,-403 347,-715z"/>
     <path class="fil22" d="M5594 17927c-534,161 -110,1262 380,1279 170,-3 292,1 415,5 12,-75 44,-178 29,-272 -630,176 -869,-541 -824,-1012z"/>
     <path class="fil29" d="M5903 17731c-322,-39 -314,195 -195,418 164,310 544,596 546,85 -71,-135 -343,-456 -351,-503z"/>
     <path class="fil30" d="M6559 15479c-391,137 -542,113 -814,-209 -341,474 400,757 700,529 84,-63 134,-168 114,-320z"/>
     <path class="fil31" d="M8754 15632c-221,-159 -553,-397 -751,-121 268,151 445,488 765,509 13,-75 -6,-340 -14,-388z"/>
     <path class="fil32" d="M5158 3911c-289,-124 -629,175 -854,-154 -4,123 -36,226 -41,348 44,115 335,409 466,461 304,-75 400,-383 429,-655z"/>
     <path class="fil33" d="M9838 2793c0,0 208,-290 50,-362 -157,-72 -859,409 -1359,929 -500,520 -1145,1272 -1145,1272l-557 541 -10 392 829 -598 397 -406c0,0 836,-1222 1203,-1586 367,-365 527,-355 527,-355l65 173z"/>
     <path class="fil34" d="M8148 3191c-680,13 -830,1037 -1444,1308 -99,138 -362,619 -394,722 75,12 324,191 379,231 555,-481 764,-1295 1303,-1870 52,-131 156,-391 156,-391z"/>
     <path class="fil35" d="M7864 3469c-502,57 -659,741 -1055,1001 55,39 110,79 166,119 487,-153 741,-682 889,-1120z"/>
     <path class="fil36" d="M8607 2494c-475,78 -671,816 -1130,989 -366,450 -921,930 -1093,1519 115,-43 210,-59 325,-102 442,-1023 1578,-1379 1898,-2406z"/>
     <path class="fil37" d="M7657 1601c-1279,379 -1308,1993 -1572,3060 15,95 50,162 66,257 563,-433 902,-1195 1141,-1819 -55,-40 -245,-9 -313,27 208,-522 545,-991 678,-1525z"/>
     <path class="fil38" d="M6272 3119c-590,121 75,1060 -361,1375 -12,76 -32,103 -44,178 795,-57 387,-1062 405,-1553z"/>
     <path class="fil32" d="M8315 629c-552,-20 -715,701 -1062,1038 -50,69 -157,306 -173,358 226,-110 127,405 358,26 272,-495 706,-895 877,-1422z"/>
     <path class="fil39" d="M5696 861c-428,70 -620,686 -755,1050 110,79 173,166 236,254 361,-327 474,-833 519,-1304z"/>
     <path class="fil35" d="M5835 522c-159,26 -290,447 -336,554 -119,278 -23,689 -175,943 605,-26 403,-1114 511,-1497z"/>
     <path class="fil34" d="M6125 3119c-522,85 -197,1031 -475,1418 83,59 118,127 181,214 551,-358 442,-1023 294,-1632z"/>
     <path class="fil1" d="M6458 1200c-561,-152 -868,507 -1099,886 63,87 99,155 134,222 605,-26 762,-709 965,-1108z"/>
     <path class="fil35" d="M6255 1599c-768,76 -992,1088 -1315,1653 36,67 91,106 127,174 562,-433 1031,-1144 1188,-1827z"/>
     <path class="fil36" d="M5447 3071c-323,-191 -275,557 -630,469 -4,122 -56,253 -81,403 63,87 126,174 142,269 341,-299 544,-698 569,-1141z"/>
     <path class="fil36" d="M5363 2256c-618,101 -1182,1119 -741,1730 408,-335 27,-1028 558,-1359 59,-82 191,-323 183,-371z"/>
     <path class="fil40" d="M7315 7495c-502,57 -889,-221 -1308,-396 -725,484 453,828 744,1121 395,34 611,-441 564,-725z"/>
     <path class="fil32" d="M7302 5474c-55,-40 -344,-164 -446,-195 -183,371 388,1033 -166,1221 15,95 11,218 26,312 285,-46 1032,198 808,-424 -6,-340 -108,-665 -222,-914z"/>
     <path class="fil32" d="M7236 6265c-210,58 197,309 0,0z"/>
     <path class="fil41" d="M6246 6767c-194,8 -373,256 -614,271 -57,22 -236,124 -269,142 331,238 805,-71 883,-413z"/>
     <path class="fil33" d="M2633 3896l-327 -360c0,0 -146,-147 -15,-388 131,-241 389,-307 389,-307 0,0 -381,354 -235,501 145,147 470,45 470,45l128 637 -241 162 -169 -290z"/>
     <path class="fil32" d="M6052 4386c-124,-114 -261,-121 -377,-72 -260,112 -403,511 -1,597 396,33 444,-268 378,-525z"/>
     <path class="fil36" d="M6343 4972c-719,-224 -1576,501 -1377,1273 63,87 154,195 217,282 452,-513 913,-978 1160,-1555z"/>
     <path class="fil32" d="M6176 5146c-573,-77 -1212,636 -989,1258 95,-16 170,-3 265,-19 -251,-641 576,-801 724,-1239z"/>
     <path class="fil35" d="M6524 5187c0,0 -150,-25 -226,-37 58,503 -165,929 -715,994 -39,56 -107,91 -146,146 477,385 1353,-367 1110,-961 -8,-48 -15,-95 -23,-142z"/>
     <path class="fil36" d="M2573 3979c0,0 -245,-8 -590,121 -344,129 -483,322 -483,322l878 4 822 255 585 2 -841 -521 -228 -499 -143 316z"/>
     <path class="fil33" d="M4915 5559c-78,3 -143,41 -193,103 -198,241 -170,834 126,980 219,-304 7,-708 67,-1083z"/>
     <path class="fil42" d="M4439 4881c-403,-80 -934,-43 -1173,-466 -76,-13 -123,-5 -198,-17 199,772 914,1118 1414,1646 417,-287 -184,-384 -271,-614 258,-66 266,-312 228,-549z"/>
     <path class="fil1" d="M4426 3908c-537,-302 -1081,-652 -1758,-468 -12,75 192,431 303,511 478,93 844,691 1410,428 75,12 130,52 205,64 -15,-95 -97,-447 -160,-535z"/>
     <path class="fil36" d="M3177 5063c-790,-359 -1644,-512 -2577,-555 -40,56 -99,139 -139,194 889,220 1782,318 2644,519 40,-56 32,-103 72,-158z"/>
     <path class="fil43" d="M4137 4601c-530,38 -964,-232 -1338,-585 -96,15 -191,31 -286,46 308,389 1222,1214 1632,587l-8 -48z"/>
     <path class="fil44" d="M4664 6258c-241,-131 -505,-405 -815,-208 190,262 478,385 758,461 13,-75 57,-253 57,-253z"/>
     <path class="fil20" d="M4288 6198c-656,-137 -1292,-301 -2012,-233 -40,56 -60,83 -99,139 651,259 1434,277 2134,236 -8,-48 -15,-95 -23,-142z"/>
     <path class="fil1" d="M2724 6100c-498,-65 -1005,115 -1283,502 343,455 469,-418 914,-223 115,-43 357,-204 369,-279z"/>
     <path class="fil45" d="M8827 2129c-292,-1 -375,464 -617,625 -2,61 -4,123 -30,187 71,-11 119,-19 190,-31 175,-272 478,-431 457,-781z"/>
     <path class="fil36" d="M4740 6502c-885,-344 -2347,-641 -3113,191 35,67 63,87 98,154 726,-484 1829,-444 2603,-181 16,95 192,432 256,519 139,-193 222,-426 156,-683z"/>
     <path class="fil35" d="M9565 3812c-679,-279 -974,598 -1564,719 -341,299 -706,749 -854,1188 130,51 213,111 316,143 568,-849 1235,-1542 2118,-1955 -8,-47 -8,-47 -16,-95z"/>
     <path class="fil1" d="M10610 4982c-1158,-371 -2414,443 -2932,1454 64,87 126,174 162,242 608,144 718,-824 1185,-949 444,-268 960,-693 1481,-486 60,-83 72,-158 104,-261z"/>
     <path class="fil46" d="M7822 7168c-502,58 -974,305 -1539,276 -40,55 -52,130 -91,186 55,39 110,79 165,119 479,-201 1313,-20 1465,-581z"/>
     <path class="fil36" d="M7729 6598c-593,-49 -1061,369 -1615,557 15,95 -16,197 -48,300 537,302 1843,-57 1663,-857z"/>
     <path class="fil1" d="M5624 7137c-1094,-577 -2287,325 -2737,1300 625,-53 865,-970 1651,-781 368,13 1041,-48 1086,-519z"/>
     <path class="fil36" d="M5792 7719c-547,235 -948,911 -1472,1288 -167,466 -280,972 -289,1510 55,40 130,52 185,92 216,-767 219,-1645 1000,-2089 40,-348 768,-369 576,-801z"/>
     <path class="fil32" d="M7626 7907c-185,-92 -368,280 -183,371 -280,-76 -1083,-67 -856,432 354,-374 1170,297 1156,-383 -15,-95 -109,-373 -117,-420z"/>
     <path class="fil32" d="M8504 6862c-399,-203 -476,370 -457,635 -490,-310 -422,703 82,352 446,196 718,517 1152,787 67,-35 115,-43 182,-78 -29,-776 -736,-1075 -959,-1696z"/>
     <path class="fil47" d="M9221 14313c-186,-91 -402,-373 -637,-164 375,353 635,749 408,1298 82,60 118,127 153,194 306,-366 288,-924 76,-1328z"/>
     <path class="fil47" d="M8431 12614c-55,-40 -418,-176 -568,-200 35,68 23,143 38,238 636,164 385,863 732,1196 32,-102 84,-233 116,-336 33,-395 -236,-546 -318,-898z"/>
     <path class="fil48" d="M8433 18147c-387,-279 -1156,-665 -1502,-243 414,298 1103,39 1366,606 68,-35 152,-269 136,-363z"/>
     <path class="fil49" d="M8890 19900c-438,-440 -1047,-292 -1605,-274 -39,55 -59,83 -99,138 529,255 1298,-115 1691,504 40,-56 49,-301 13,-368z"/>
     <path class="fil50" d="M14644 16328c-633,6 -94,1063 -661,1326 -32,103 35,361 90,400 669,-231 794,-1104 571,-1726z"/>
     <path class="fil18" d="M6117 11578c-609,148 275,784 547,813 44,114 363,428 446,487 216,-766 -785,-774 -993,-1300z"/>
     <path class="fil9" d="M6030 11641c-570,93 -956,863 -1136,1404 64,87 107,202 122,297 267,-604 720,-1117 1014,-1701z"/>
     <path class="fil10" d="M5246 13256c-515,133 251,641 95,1033 36,67 51,162 67,257 554,-188 102,-1016 -162,-1290z"/>
     <path class="fil51" d="M6133 14062c-471,-45 -762,709 -747,1096 43,116 86,230 102,325 345,-422 212,-936 660,-1326 -7,-48 -7,-48 -15,-95z"/>
     <path class="fil26" d="M7130 13899c-186,-92 -418,-468 -616,-192 532,425 795,991 674,1742 75,12 150,25 206,64 112,-506 166,-1221 -264,-1614z"/>
     <path class="fil52" d="M6368 15949c-233,-84 -868,-541 -913,-70 426,222 1074,311 1167,881 56,40 83,60 139,100 455,-343 -232,-670 -393,-911z"/>
     <path class="fil46" d="M5539 15645c-411,-127 -157,684 -470,711 -80,403 -181,1126 360,1306 17,-490 -353,-966 13,-1416 51,-130 104,-553 97,-601z"/>
     <path class="fil46" d="M5155 15537c-308,-96 -690,-496 -980,-327 193,432 771,386 1010,810 12,-75 6,-415 -30,-483z"/>
     <path class="fil10" d="M4231 15250c-427,69 -161,806 -379,1110 -50,593 522,962 1044,877 30,-565 -751,-121 -748,-706 -23,-435 275,-850 83,-1281z"/>
     <path class="fil26" d="M5397 17765c-495,105 -225,1012 -28,1321 75,12 130,51 206,63 25,-442 -243,-886 -178,-1384z"/>
     <path class="fil18" d="M6378 17800c-352,-211 -683,-449 -1078,-483 45,578 928,458 1108,965 55,40 110,80 166,119 206,-228 -70,-427 -196,-601z"/>
     <path class="fil53" d="M7185 17668c-562,140 -776,1370 -124,1629 45,-471 -313,-1022 107,-1432 13,-75 5,-122 17,-197z"/>
     <path class="fil10" d="M7599 15577c-759,124 -1155,1139 -726,1825 417,-287 -190,-1017 349,-1300 107,-91 365,-450 377,-525z"/>
     <path class="fil10" d="M8807 16111c-379,-231 -1002,-763 -1374,-361 386,279 1154,202 1167,882 83,60 118,127 154,195 241,-162 112,-506 53,-716z"/>
     <path class="fil48" d="M9243 16089c-384,-108 -252,699 -564,725 -144,317 -98,894 313,1022 67,-36 115,-43 182,-79 -623,-532 114,-1091 69,-1668z"/>
     <path class="fil54" d="M10827 16390c-394,-325 -837,-350 -1347,-340 -115,43 -182,78 -297,122 430,392 1095,-9 1473,514 96,-15 198,17 273,29 12,-75 -74,-304 -102,-325z"/>
     <path class="fil46" d="M8734 17902c0,0 -150,-24 -225,-36 18,557 -83,1281 414,1638 67,-35 115,-43 182,-78 -382,-401 -238,-1009 -371,-1524z"/>
     <path class="fil53" d="M10785 18372c-627,-410 -1275,-499 -2027,-327 1,755 902,-148 1162,249 95,-16 895,560 865,78z"/>
     <path class="fil55" d="M8929 20137c-457,-413 -1074,-604 -1640,-341 7,47 -5,123 3,170 578,-46 1076,19 1498,365 59,-83 99,-138 139,-194z"/>
     <path class="fil30" d="M8416 18344c-366,-305 -757,-461 -1244,-309 260,397 889,221 1252,649 39,-55 28,-273 -8,-340z"/>
     <path class="fil53" d="M6456 19322c-292,-293 -711,-176 -1015,-394 -430,655 909,193 982,790 122,4 198,16 300,48 -63,-87 -232,-376 -267,-444z"/>
     <path class="fil14" d="M6277 19571c-138,-99 -549,-227 -475,78 388,-15 350,503 711,468 218,-303 -225,-328 -236,-546z"/>
     <path class="fil56" d="M12350 18701c-339,-286 -889,-220 -1119,158 55,40 83,60 138,100 400,-382 751,121 1099,162 -16,-95 -110,-372 -118,-420z"/>
     <path class="fil53" d="M11418 19707c-214,-112 -943,495 -779,-142 -35,-67 -71,-134 -106,-201 -566,262 -11,1122 539,764 107,-90 326,-394 346,-421z"/>
     <path class="fil10" d="M12615 18975c-396,-33 -253,992 -900,610 -115,43 -182,78 -297,122 110,79 213,111 323,190 569,200 1034,-388 874,-922z"/>
     <path class="fil46" d="M9863 19887c-475,78 -153,854 -652,1082 -136,363 -705,163 -833,574 814,209 1700,-789 1485,-1656z"/>
     <path class="fil46" d="M10341 19980c-538,-10 33,945 -635,884 -40,55 -100,138 -139,193 611,314 1037,-511 774,-1077z"/>
     <path class="fil49" d="M13342 16565c-641,251 -937,1128 -923,1808 35,67 90,107 126,175 318,-442 149,-1024 570,-1434 99,-138 235,-502 227,-549z"/>
     <path class="fil57" d="M13226 16901c0,0 -158,-72 -233,-84 -207,521 -704,1212 -223,1767 243,-454 -76,-1060 380,-1403 32,-103 45,-178 76,-280z"/>
     <path class="fil6" d="M13181 17371c-332,54 -608,904 -304,1122 147,-149 216,-318 251,-496 39,-202 36,-416 53,-626z"/>
     <path class="fil22" d="M9364 13997c-186,-92 -402,-373 -636,-164 300,341 927,750 530,1303 23,142 188,554 231,669 59,-83 119,-166 131,-241 -188,-554 297,-1170 -256,-1567z"/>
     <path class="fil22" d="M12893 16200c-482,-263 -1080,-190 -1633,-295 -40,56 -59,83 -99,139 512,452 1273,35 1754,591 32,-103 -15,-388 -22,-435z"/>
     <path class="fil17" d="M12864 16472c-391,-155 -1026,-612 -1400,-210 387,278 917,240 1336,416 40,-55 64,-206 64,-206z"/>
     <path class="fil58" d="M11583 16389c-578,45 -902,1195 -242,1502 75,12 122,4 197,16 -227,-498 -337,-871 28,-1320 12,-75 5,-123 17,-198z"/>
     <path class="fil17" d="M11847 16663c-415,-6 -640,1006 -122,1043 20,-171 -30,-338 -10,-510 20,-176 111,-357 132,-533z"/>
     <path class="fil53" d="M13876 16405c-514,132 48,1040 -154,1438 -117,629 -507,1229 -1093,1520 445,487 970,-476 1134,-820 389,-599 305,-1414 113,-2138z"/>
     <path class="fil53" d="M4533 13372c-215,-27 -395,246 -449,513 -51,257 13,510 272,491 -62,-380 137,-656 177,-1004z"/>
     <path class="fil53" d="M3547 12705c-299,-342 -1027,-320 -1009,237 55,40 83,60 138,100 279,-680 961,62 643,504 63,87 118,127 181,214 219,-304 224,-719 47,-1055z"/>
     <path class="fil48" d="M4200 12379c-193,-140 -917,52 -720,361 285,-339 1030,490 819,-207 -35,-67 -63,-87 -99,-154z"/>
     <path class="fil51" d="M4003 13703c-1012,-225 -729,1362 -85,1573 251,-406 -807,-1209 68,-1376 12,-75 5,-122 17,-197z"/>
     <path class="fil46" d="M6554 9922c-415,-5 -221,890 -707,1042 -33,103 -14,368 41,407 291,-461 889,-827 666,-1449z"/>
     <path class="fil59" d="M7529 10372c-248,-178 -596,-219 -948,-137 35,67 23,142 38,237 732,-144 1209,534 1202,1242 56,40 83,60 138,99 386,-477 -198,-1064 -430,-1441z"/>
     <path class="fil26" d="M8078 11940c-776,29 -1359,783 -1441,1479 578,-46 442,-1023 1048,-1049 135,-71 380,-355 393,-430z"/>
     <path class="fil22" d="M8602 12318c-233,-84 -346,-333 -643,-212 152,487 923,581 759,1217 15,95 109,372 165,411 393,-429 39,-1103 -281,-1416z"/>
     <path class="fil60" d="M8237 16497c-303,-512 -1108,83 -289,169 62,87 351,211 398,203 12,-75 -74,-305 -109,-372z"/>
     <path class="fil47" d="M6879 14305c-208,-234 -568,-199 -782,-18 224,329 790,66 713,639 -4,122 86,522 121,590 286,-340 153,-854 -52,-1211z"/>
     <path class="fil15" d="M6530 13509c-336,-115 -318,442 -693,382 -12,75 -52,130 -64,205 359,258 792,-227 757,-587z"/>
     <path class="fil18" d="M11372 15692c0,0 -186,-91 -241,-131 -191,324 101,617 349,796 254,-236 -22,-435 -108,-665z"/>
     <path class="fil13" d="M11050 13576c-530,37 -50,885 -427,1117 -282,510 -892,658 -1119,1207 593,49 809,-718 1288,-918 401,-382 241,-916 258,-1406z"/>
     <path class="fil61" d="M6168 16518c-205,-64 -564,-323 -672,61 320,21 707,299 626,702 526,84 192,-616 46,-763z"/>
     <path class="fil62" d="M6252 16285c-241,-132 -564,-323 -818,-86 319,313 924,288 910,948 75,12 130,52 206,64 163,-344 -89,-693 -298,-926z"/>
     <path class="fil63" d="M10788 9280c-622,223 -12,1123 299,1389 415,298 85,815 194,1187 606,-318 198,-1324 -196,-1650 -391,-155 -188,-554 -297,-926z"/>
     <path class="fil64" d="M9616 10616c-181,-214 -852,-445 -830,-10 965,-60 1182,1269 623,1872 -32,103 -64,206 -96,309 620,69 661,-1327 1310,-482 367,305 555,860 546,1397 55,40 82,60 137,100 391,-893 -417,-1809 -1159,-2175 -264,-274 -199,-772 -531,-1011z"/>
     <path class="fil46" d="M10761 10015c-419,117 -706,749 -759,1172 43,115 39,238 82,353 63,87 126,174 189,261 85,-526 39,-1103 432,-1533 32,-103 44,-177 56,-253z"/>
     <path class="fil46" d="M12138 12472c-316,-144 -734,-612 -1047,-292 524,377 1271,621 1395,1380 129,345 -26,736 190,1017 80,-110 139,-193 171,-296 74,-743 -272,-1369 -709,-1809z"/>
     <path class="fil65" d="M12780 12976c-264,-274 -484,615 -37,518 295,464 -110,968 122,1345 536,-453 238,-1379 -85,-1863z"/>
     <path class="fil59" d="M12525 14846c-534,160 286,709 305,974 371,475 -105,846 -233,1257 957,-108 733,-1485 153,-1902 -63,-87 -197,-309 -225,-329z"/>
     <path class="fil22" d="M12525 14846c-495,105 -382,940 -952,1033 385,571 867,-507 936,-836 12,-75 4,-122 16,-197z"/>
     <path class="fil49" d="M13366 11637c-574,216 -209,1107 110,1420 252,349 -168,759 183,970 691,-844 -513,-1501 -293,-2390z"/>
     <path class="fil49" d="M13153 11526c-403,-80 -910,100 -1066,491 56,40 83,59 139,99 246,-284 949,-155 927,-590z"/>
     <path class="fil53" d="M12821 10239c-672,62 -538,1331 35,1409 -10,-511 -365,-891 -35,-1409z"/>
     <path class="fil53" d="M12679 10263c-273,-29 -630,176 -767,-216 -67,35 -115,43 -182,78 50,455 899,731 949,138z"/>
     <path class="fil10" d="M11949 8481c-867,214 -479,1248 -61,1716 531,-331 -480,-848 -114,-1297 79,-111 183,-372 175,-419z"/>
     <path class="fil10" d="M11599 9025c-205,-64 -463,3 -549,-227 -558,311 587,757 549,227z"/>
     <path class="fil12" d="M11274 8079c-193,-139 -412,165 -306,367 -372,110 -568,-492 -964,-233 122,297 370,476 646,675 572,370 686,-429 624,-809z"/>
     <path class="fil22" d="M10251 7637c-210,-100 -400,143 -443,391 -27,158 6,317 132,391 234,-209 282,-509 311,-782z"/>
     <path class="fil66" d="M8243 6758c-392,137 -899,318 -1019,776 461,583 1311,566 1819,1141 76,12 131,52 206,64 -104,-787 -1085,-822 -1582,-1180 257,-66 873,418 752,-171 -91,-107 -208,-527 -176,-630z"/>
     <path class="fil67" d="M8748 7163c-305,-17 -118,630 84,815 92,84 82,-106 214,-181 -18,-265 -192,-432 -298,-634z"/>
     <path class="fil53" d="M9101 9178c-637,128 -483,1370 19,1605 9,-538 -261,-1152 -19,-1605z"/>
     <path class="fil49" d="M8762 10232c-578,46 -1215,1222 -615,1612 -53,-625 380,-1110 615,-1612z"/>
     <path class="fil63" d="M8059 8470c-676,184 -1237,1080 -1066,1831 56,40 158,72 214,112 -61,-672 320,-1320 836,-1745 12,-75 4,-123 16,-198z"/>
     <path class="fil68" d="M7652 8512c-498,-65 -954,278 -1275,550 287,416 566,-263 945,-33 127,-118 416,-287 330,-517z"/>
     <path class="fil69" d="M7555 8065c-854,-153 -1540,276 -1879,1038 -79,110 -111,213 -190,324 122,4 217,-12 312,-27 421,-410 609,-1197 1293,-1040 115,-43 424,-240 464,-295z"/>
     <path class="fil26" d="M11208 14171c-554,188 314,1021 -32,1444 -32,102 -64,205 -96,308 780,-152 376,-1280 128,-1752z"/>
     <path class="fil70" d="M10291 11835c-764,247 288,1464 -453,1853 -135,71 -484,323 -571,386 55,40 83,59 138,99 1270,-134 930,-1468 886,-2338z"/>
     <path class="fil10" d="M14221 14410c-689,259 272,1370 -310,1830 -25,151 18,558 53,626 599,-659 349,-1593 257,-2456z"/>
     <path class="fil52" d="M14146 14398c-329,38 -642,429 -717,814 -40,203 -14,405 112,553 195,-447 362,-913 605,-1367z"/>
     <path class="fil20" d="M6005 7831c-700,41 -719,1117 -1396,1300 -468,418 -320,1027 -582,1509 35,67 90,107 125,174 508,-473 203,-1447 967,-1693 353,-375 671,-817 886,-1290z"/>
     <path class="fil71" d="M5701 7612c-1098,-454 -2118,614 -2350,1578 -4,123 -22,613 -26,736 115,-44 209,-59 324,-102 482,-785 892,-1706 1854,-1936 87,-63 198,-276 198,-276z"/>
     <path class="fil71" d="M4505 7003c-815,84 -1727,769 -1805,1635 55,40 131,52 186,92 236,-794 941,-1251 1642,-1584 -8,-48 -15,-95 -23,-143z"/>
     <path class="fil23" d="M4985 7851c-373,109 -797,349 -999,748 55,40 110,79 165,119 184,-371 864,-385 834,-867z"/>
     <path class="fil35" d="M8439 6019c-454,-242 -832,575 -976,891 36,67 99,154 134,222 487,-153 639,-714 842,-1113z"/>
     <path class="fil20" d="M6500 5337c0,0 117,419 -34,688 -151,268 -555,188 -555,188l-190 323 -586 -1c0,0 212,403 565,322 352,-82 502,-58 637,-129 135,-70 -132,534 395,33 528,-500 627,-639 627,-639 0,0 -355,-380 -275,-491 79,-110 699,-796 699,-796 0,0 120,-459 239,-624 119,-166 556,-774 556,-774 0,0 -881,875 -1155,1140 -273,263 -552,943 -552,943l-371 -183z"/>
     <path class="fil20" d="M6135 5494c-328,-69 -468,417 -532,623 229,113 485,-11 581,-209 60,-122 58,-273 -49,-414z"/>
     <path class="fil20" d="M9679 4062c-798,-113 -1508,466 -1779,1192 -345,130 -817,670 -280,972 595,-536 618,-1734 1623,-1849 135,-71 397,-260 436,-315z"/>
     <path class="fil36" d="M5463 5555c-333,-46 -461,299 -415,597 43,283 242,525 570,353 -332,-239 -271,-614 -155,-950z"/>
     <path class="fil72" d="M5183 6527c-569,-200 -303,829 132,807 122,4 459,-173 518,-256 -320,-20 -790,-65 -650,-551z"/>
     <path class="fil72" d="M4810 6929c-1052,-170 -2468,110 -3013,1101 -5,123 172,460 255,519 36,-1273 1673,-1394 2721,-1395 12,-75 25,-150 37,-225z"/>
     <path class="fil32" d="M4656 6735c-986,-668 -2643,-812 -3438,293 8,47 -4,122 4,170 657,-156 956,-863 1735,-722 585,2 1054,340 1608,444 39,-55 51,-130 91,-185z"/>
     <path class="fil32" d="M4176 5887c-1082,-360 -2439,-162 -3626,31 -234,209 -497,691 -185,957 195,-446 315,-905 963,-816 926,-5 1895,-187 2737,41 60,-83 72,-158 111,-213z"/>
     <path class="fil1" d="M4169 5839c-873,-418 -1964,-532 -2927,-9 347,333 957,-108 1356,95 574,-216 992,252 1519,45 20,-28 32,-103 52,-131z"/>
     <path class="fil67" d="M4448 5160c-388,-72 -439,209 -319,440 75,145 218,270 388,280 226,-256 -145,-439 -69,-720z"/>
     <path class="fil20" d="M3107 4489c-292,-1 25,374 101,471 319,460 668,878 1171,1198 51,16 253,57 301,49 -227,-268 -671,-378 -858,-701 -282,-307 -554,-629 -715,-1017z"/>
     <path class="fil4" d="M3047 4718c-178,-44 -438,-147 -577,46 276,199 480,555 868,541 1,-293 -272,-322 -291,-587z"/>
     <path class="fil1" d="M2917 4667c-779,-142 -1601,-397 -2480,-107 -59,82 -119,165 -206,228 787,-104 1543,-106 2254,71 142,-23 392,-137 432,-192z"/>
     <path class="fil32" d="M4737 4467c-820,207 -1435,-278 -1828,-896 -76,-12 -131,-52 -206,-64 -2,585 555,860 949,1186 281,76 1060,217 1085,-226z"/>
     <path class="fil35" d="M4634 4435c-162,-44 -363,-89 -556,-83 -142,3 -278,35 -389,115 161,242 1035,367 945,-32z"/>
     <path class="fil36" d="M3968 3788c-336,-116 -881,-466 -1151,-31 179,175 404,266 643,322 188,44 383,66 570,89 12,-75 -27,-312 -62,-380z"/>
     <path class="fil72" d="M5375 4570c-312,-266 -1071,-142 -931,420 43,115 87,229 110,372 400,-90 716,-239 1013,-361 -15,-95 -137,-392 -192,-431z"/>
     <path class="fil73" d="M5088 5202c-351,-226 -456,370 -369,547 49,98 156,69 313,-294 12,-75 44,-179 56,-253z"/>
     <path class="fil67" d="M5808 5133c-431,-101 -959,693 -478,955 -18,-181 76,-323 186,-455 136,-164 296,-312 292,-500z"/>
     <path class="fil67" d="M6198 3192c0,0 -150,-24 -225,-36 2,463 -165,929 7,1388 87,-63 147,-146 207,-229 -15,-387 148,-731 11,-1123z"/>
     <path class="fil36" d="M6139 3275c-254,41 -527,422 -559,760 -16,168 29,326 167,425 231,-379 236,-794 392,-1185z"/>
     <path class="fil20" d="M5988 2203c-503,58 -276,849 -569,1141 -46,470 -617,1149 -180,1589 576,-801 639,-1762 749,-2730z"/>
     <path class="fil74" d="M7209 7816c-368,-13 -747,50 -1061,-155 -34,18 -91,39 -139,47 316,289 721,309 1145,215 29,-41 36,-79 55,-107z"/>
     <path class="fil55" d="M5339 1882c-408,42 -544,552 -701,858 362,-96 338,-616 678,-769 6,-37 16,-51 23,-89z"/>
     <path class="fil1" d="M5366 2049c-323,40 -491,506 -618,771 18,33 35,67 53,101 185,-286 394,-576 565,-872z"/>
     <path class="fil75" d="M5460 2179c-275,33 -290,462 -467,650 -131,240 -286,485 -315,758 38,6 65,25 103,32 122,-520 505,-936 679,-1440z"/>
     <path class="fil76" d="M5230 1888c-281,70 -543,405 -705,688 -18,259 -191,470 -168,758 28,20 65,27 93,46 134,-448 201,-1008 644,-1275 54,-45 139,-193 136,-217z"/>
     <path class="fil77" d="M9083 1978c-92,1 -266,84 -371,187 -88,87 -126,188 -18,266 78,-195 400,-236 389,-453z"/>
     <path class="fil15" d="M8188 747c-236,-23 -440,291 -467,503 41,29 83,59 124,89 199,-130 344,-361 343,-592z"/>
     <path class="fil77" d="M8215 767c-82,-23 -169,23 -213,96 -31,52 -40,118 -9,184 77,-49 269,-142 222,-280z"/>
     <path class="fil1" d="M6831 1992c-383,-108 -722,654 -752,842 15,95 124,89 139,184 392,-137 655,-618 613,-1026z"/>
     <path class="fil36" d="M7086 1987c-329,78 -40,579 -291,754 -84,233 -298,415 -386,624 51,16 103,32 154,48 336,-408 588,-876 523,-1426z"/>
     <path class="fil78" d="M7801 2333c-375,171 -782,591 -844,1028 31,43 63,87 80,121 308,-282 436,-693 725,-1008 17,-52 23,-89 39,-141z"/>
     <path class="fil67" d="M8053 3060c-385,99 -597,597 -894,865 -250,260 -489,592 -642,921 41,30 69,50 111,80 304,-745 1020,-1215 1425,-1866z"/>
     <path class="fil54" d="M5388 10990c-206,-64 -407,-250 -621,-69 129,344 707,299 642,797 601,97 42,-641 -21,-728z"/>
     <path class="fil18" d="M4601 10802c-506,-113 -717,531 -1003,870 537,303 504,-642 939,-665 12,-75 52,-130 64,-205z"/>
     <path class="fil18" d="M3437 11138c0,0 -150,-24 -225,-36 -28,273 -26,735 362,721 36,-226 -50,-455 -137,-685z"/>
     <path class="fil18" d="M4906 9680c-313,26 -810,717 -431,947 68,-35 365,-157 460,-172 -47,-285 -11,-511 -29,-775z"/>
     <path class="fil53" d="M10052 9107c-213,-111 -884,-343 -890,72 558,-18 980,328 1121,890 95,-16 170,-4 265,-19 -130,-344 -259,-689 -496,-943z"/>
     <path class="fil79" d="M10360 16662c-319,-314 -1234,-91 -1101,423 416,-287 769,-369 1179,52 -16,-95 -70,-428 -78,-475z"/>
     <path class="fil17" d="M8773 14557c-485,-433 -1266,304 -936,835 392,-137 113,-799 722,-654 67,-36 222,-134 214,-181z"/>
     <path class="fil53" d="M8364 21302c-828,160 -1427,-230 -2003,-770 -167,174 -806,-453 -767,77 948,137 1502,1290 2591,941 87,-62 179,-248 179,-248z"/>
     <path class="fil48" d="M8769 20797c-579,338 -1208,221 -1712,-184 -545,-349 -995,-715 -1365,-1190 -47,7 -142,23 -190,31 58,502 437,733 824,1011 110,79 544,350 655,429 477,385 1634,757 1788,-97z"/>
     <path class="fil23" d="M11950 20278c-134,-222 -700,41 -302,244 -373,402 -881,-173 -1250,106 370,476 1672,532 1552,-350z"/>
     <path class="fil80" d="M12314 20121c-157,-365 -1269,-159 -649,203 40,-55 854,153 649,-203z"/>
     <path class="fil53" d="M13911 19299c-337,177 -776,29 -1077,273 168,222 527,263 784,149 171,-75 297,-218 293,-422z"/>
     <path class="fil53" d="M14919 18013c-280,-76 -558,311 -763,-46 -270,341 115,503 432,444 204,-38 379,-167 331,-398z"/>
     <path class="fil10" d="M4477 17208c0,0 -150,-24 -225,-36 -144,608 257,1274 758,1509 30,-566 -642,-797 -533,-1473z"/>
     <path class="fil6" d="M5008 15829c-66,-99 -237,-140 -364,-130 -182,13 -162,387 288,587 67,-35 84,-409 76,-457z"/>
     <path class="fil81" d="M4880 13852c0,0 -150,-25 -225,-37 137,392 -11,831 205,1112 349,-251 284,-801 20,-1075z"/>
     <path class="fil82" d="M6438 12500c-55,-40 -327,-68 -423,-53 375,354 -73,744 -161,1099 553,105 674,-646 584,-1046z"/>
     <path class="fil12" d="M5933 12388c-200,46 -302,257 -379,488 -60,177 -104,366 -166,503 538,10 579,-631 545,-991z"/>
     <path class="fil83" d="M7810 12691c-589,120 334,701 -47,1055 -12,75 -16,198 -28,273 775,-29 320,-1027 75,-1328z"/>
     <path class="fil31" d="M7449 13018c-329,-1 -410,336 -329,620 64,221 225,410 445,385 5,-416 -291,-587 -116,-1005z"/>
     <path class="fil56" d="M5101 11622c-187,43 -333,210 -493,361 -143,133 -297,254 -502,264 370,476 1092,-178 995,-625z"/>
     <path class="fil28" d="M12073 14164c-324,-191 -824,-719 -1178,-344 597,219 959,648 1397,1088 39,-55 107,-90 147,-146 -154,-194 -233,-376 -366,-598z"/>
     <path class="fil17" d="M12044 14437c0,0 -150,-25 -225,-37 42,408 191,725 -47,1056 616,192 536,-746 272,-1019z"/>
     <path class="fil6" d="M11621 14384c-376,-61 -132,534 -169,759 211,12 279,-107 283,-259 5,-169 -69,-379 -114,-500z"/>
     <path class="fil6" d="M13801 14150c-219,-3 -403,172 -500,395 -87,199 -105,435 -18,616 330,-225 374,-695 518,-1011z"/>
     <path class="fil22" d="M13240 12657c-264,-273 -464,588 -65,498 24,143 93,570 109,665 444,-267 200,-861 -44,-1163z"/>
     <path class="fil48" d="M13021 11913c-219,48 -323,299 -338,577 -15,290 66,610 215,759 278,-386 23,-905 123,-1336z"/>
     <path class="fil52" d="M12609 11030c-307,-389 -964,-233 -982,257 348,41 646,-373 886,51 40,-55 104,-261 96,-308z"/>
     <path class="fil11" d="M11884 10173c0,0 -150,-24 -225,-36 117,420 -161,806 -127,1166 523,-85 497,-690 352,-1130z"/>
     <path class="fil12" d="M12462 11176c-158,-72 -529,-255 -522,85 55,40 311,266 374,353 60,-83 136,-363 148,-438z"/>
     <path class="fil16" d="M11008 10926c0,0 -158,-72 -234,-84 12,217 -24,1491 354,673 -23,-142 -85,-522 -120,-589z"/>
     <path class="fil15" d="M10718 11095c-176,15 -241,190 -288,383 -35,150 -61,309 -118,414 486,140 508,-473 406,-797z"/>
     <path class="fil47" d="M9794 9466c-185,-91 -431,-100 -577,46 430,100 361,721 749,706 8,-245 2,-585 -172,-752z"/>
     <path class="fil84" d="M8087 9160c-447,98 -50,886 -364,1205 504,-4 523,-517 441,-923 -22,-105 -49,-202 -77,-282z"/>
     <path class="fil16" d="M7793 9452c-128,-44 -198,26 -251,134 -84,175 -122,448 -281,489 442,318 559,-310 532,-623z"/>
     <path class="fil26" d="M7054 9256c-285,-125 -486,85 -507,316 -12,129 34,265 153,351 305,-74 401,-382 354,-667z"/>
     <path class="fil7" d="M6412 14577c-242,-39 -341,111 -349,296 -15,333 260,780 520,456 -220,-159 -180,-507 -171,-752z"/>
     <path class="fil22" d="M8689 13742c-480,200 -1219,296 -1336,925 498,65 445,-560 951,-448 106,-91 372,-402 385,-477z"/>
     <path class="fil85" d="M7865 18849c-264,-274 -504,643 -17,490 158,72 576,247 679,279 12,-75 24,-150 37,-225 -261,-104 -605,-267 -699,-544z"/>
     <path class="fil86" d="M7522 18685c-673,61 210,990 480,555 -22,-59 -67,-104 -121,-143 -152,-111 -375,-175 -359,-412z"/>
     <path class="fil84" d="M8452 17217c-126,66 -249,44 -369,-4 -264,-108 -509,-348 -715,-63 245,302 979,620 1084,67z"/>
     <path class="fil87" d="M8575 17222c-270,141 -653,33 -859,262 113,197 391,218 602,130 170,-72 296,-214 257,-392z"/>
     <path class="fil7" d="M6590 17010c-183,-81 -336,43 -413,204 -110,231 -59,540 296,424 52,-131 105,-554 117,-628z"/>
     <path class="fil84" d="M6422 16427c-284,-45 -90,30 -1,293 52,154 -2,586 -2,586 420,-118 137,-657 3,-879z"/>
     <path class="fil31" d="M7918 18601c-181,-214 -884,-811 -562,-35 185,384 709,762 1125,474 -62,-87 -555,-391 -563,-439z"/>
     <path class="fil6" d="M10807 17905c-186,-91 -1086,-529 -918,52 103,-79 244,-30 385,35 242,114 484,276 533,-87z"/>
     <path class="fil22" d="M9577 12914c-486,-140 -571,679 -161,806 218,-35 239,-199 217,-387 -16,-140 -56,-294 -56,-419z"/>
     <path class="fil14" d="M9839 12725c-383,-108 -247,577 -461,758 55,40 110,80 165,119 309,-196 350,-544 296,-877z"/>
     <path class="fil17" d="M10874 15481c-109,-94 -295,-47 -443,54 -239,163 -380,466 53,546 663,477 334,-347 390,-600z"/>
     <path class="fil88" d="M10245 14316c-471,-45 -647,666 -605,1074 649,89 26,-736 569,-849 12,-75 24,-149 36,-225z"/>
     <path class="fil6" d="M10348 14348c-308,-96 -441,438 -505,643 124,20 224,-14 300,-79 155,-131 217,-386 205,-564z"/>
     <path class="fil58" d="M10547 13779c-538,-9 65,843 -450,976 16,95 51,162 39,237 135,-71 249,-114 384,-185 144,-315 89,-648 27,-1028z"/>
     <path class="fil58" d="M6411 12335c-13,-10 -144,-62 -195,-78 -187,201 172,459 -28,650 -2,61 -5,269 13,303 354,-143 284,-571 210,-875z"/>
     <path class="fil30" d="M10360 18526c-322,-252 -848,-190 -1236,-29 -16,51 -32,102 -72,158 282,161 709,-141 943,175 65,26 349,125 401,142 39,-56 69,-97 99,-139 2,-61 -104,-263 -135,-307z"/>
     <path class="fil16" d="M10026 19020c-273,-29 -610,148 -719,-224 -107,91 -194,154 -302,244 -24,150 -56,253 -80,403 130,52 213,112 343,164 396,32 765,-247 758,-587z"/>
     <path class="fil6" d="M8887 20108c-209,58 -1205,-364 -831,281 114,152 277,197 428,171 218,-38 412,-224 403,-452z"/>
     <path class="fil8" d="M4035 13978c-270,-97 -382,270 -336,558 34,209 151,376 353,292 -74,-305 -46,-578 -17,-850z"/>
     <path class="fil16" d="M11884 19057c-282,-14 -521,-207 -820,-170 -25,177 69,297 202,359 223,104 557,43 618,-189z"/>
     <path class="fil15" d="M12043 17642c-407,42 -579,631 -1097,594 -40,55 -79,111 -119,166 473,507 1246,-277 1216,-760z"/>
     <path class="fil16" d="M12456 17391c-198,-17 -375,-354 -581,-125 133,222 216,513 508,514 12,-75 81,-342 73,-389z"/>
     <path class="fil31" d="M8523 11088c-677,183 94,1618 684,1204 -218,-182 -447,-371 -579,-616 -90,-166 -136,-357 -105,-588z"/>
     <path class="fil17" d="M6186 9910c-363,-136 -259,651 -627,638 -737,559 620,362 483,-30 51,-130 132,-533 144,-608z"/>
     <path class="fil10" d="M6770 17285c-269,-77 -345,253 -277,481 54,185 202,302 417,81 4,-122 -105,-494 -140,-562z"/>
     <path class="fil33" d="M373 4680c0,0 -127,-28 -122,227 5,256 505,405 505,405 0,0 -290,-208 -289,-354 0,-147 380,-209 380,-209l-298 -110 -176 41z"/>
     <path class="fil10" d="M5952 9392c-494,-187 -998,163 -1283,502 402,373 752,-464 1231,-371 39,-56 32,-103 52,-131z"/>
     <path class="fil9" d="M6035 9159c-47,8 -249,114 -317,149 404,81 276,492 592,635 273,-264 -54,-625 -275,-784z"/>
     <path class="fil51" d="M5969 8902c-257,-226 -842,-228 -847,187 233,84 582,-168 783,18 40,-55 64,-205 64,-205z"/>
     <path class="fil22" d="M6296 7922c-352,82 -785,567 -845,943 55,39 83,59 138,99 329,-224 840,-527 707,-1042z"/>
     <path class="fil58" d="M9036 14251c0,0 -186,-92 -241,-131 -206,228 273,1369 366,598 -15,-95 -90,-400 -125,-467z"/>
     <path class="fil58" d="M7946 12503c-145,-7 -188,86 -175,214 41,368 560,1021 486,345 -43,-115 -275,-491 -311,-559z"/>
     <path class="fil58" d="M12566 18549c-222,-159 -580,-417 -744,-73 273,28 450,365 735,319 12,-76 9,-246 9,-246z"/>
     <path class="fil47" d="M11029 17947c-114,-82 -244,0 -368,37 -87,25 -171,29 -245,-59 -207,522 723,394 613,22z"/>
     <path class="fil17" d="M10035 12455c0,0 -151,-25 -226,-37 -65,499 36,1116 -538,1332 63,87 126,174 161,241 559,-311 723,-947 603,-1536z"/>
     <path class="fil87" d="M7270 11346c-261,-103 -645,81 -898,25 -32,103 -64,205 -123,288 236,254 1347,341 1021,-313z"/>
     <path class="fil89" d="M7504 11138c-121,-108 -394,-174 -646,-159 -282,15 -539,131 -533,400 404,-213 1023,149 1179,-241z"/>
     <path class="fil12" d="M4805 12967c-518,-37 -986,381 -976,891 526,85 307,-660 805,-595 59,-82 171,-296 171,-296z"/>
     <path class="fil16" d="M4647 13944c0,0 -150,-24 -225,-36 -13,367 40,992 372,1231 183,-371 -105,-788 -147,-1195z"/>
     <path class="fil17" d="M8741 14835c0,0 -150,-24 -225,-36 11,217 -104,553 97,740 324,-102 167,-467 128,-704z"/>
     <path class="fil17" d="M5449 11839c-451,-73 -481,785 -964,815 -39,55 -79,111 -119,166 56,39 83,59 139,99 549,-66 872,-630 944,-1080z"/>
     <path class="fil58" d="M4996 11303c-159,-68 -301,17 -410,147 -89,105 -155,238 -193,342 308,96 574,-216 603,-489z"/>
     <path class="fil90" d="M7697 11277c-352,81 -401,674 -730,899 55,39 110,79 165,119 420,-117 655,-619 565,-1018z"/>
     <path class="fil7" d="M9114 12337c-176,-80 -245,123 -204,276 33,122 137,212 313,96 -35,-67 -102,-324 -109,-372z"/>
     <path class="fil44" d="M3601 4852c0,0 -170,4 -217,11 -41,348 275,492 516,623 143,-316 -165,-412 -299,-634z"/>
     <path class="fil91" d="M3816 5719c-126,-174 -1248,-478 -803,9 151,24 636,164 739,197 40,-56 64,-206 64,-206z"/>
     <path class="fil92" d="M7277 6616c-312,27 -550,358 -910,393 83,277 333,258 551,126 202,-123 376,-345 359,-519z"/>
     <path class="fil93" d="M9069 5349c-498,-65 -990,503 -1035,973 502,-57 619,-686 1051,-878 -8,-48 -8,-48 -16,-95z"/>
     <path class="fil94" d="M3148 5657c-117,-36 -383,-126 -593,-122 -160,4 -287,63 -289,242 245,9 849,276 882,-120z"/>
     <path class="fil95" d="M6925 5650c-238,39 -405,505 -517,718 172,72 306,19 398,-90 134,-159 179,-436 119,-628z"/>
     <path class="fil95" d="M6635 3431c-367,-13 -461,758 -145,901 87,-67 127,-153 143,-246 35,-209 -50,-462 2,-655z"/>
    </g>
   </g>
  </g>
 </g>
</svg>
